Motion_pl06
version=1
nRows=16
nColumns=43
inDegrees=yes
endheader
time	pelvis_tilt	pelvis_list	pelvis_rotation	pelvis_tx	pelvis_ty	pelvis_tz	hip_flexion_r	hip_adduction_r	hip_rotation_r	knee_angle_r	ankle_angle_r	subtalar_angle_r	mtp_angle_r	hip_flexion_l	hip_adduction_l	hip_rotation_l	knee_angle_l	ankle_angle_l	subtalar_angle_l	mtp_angle_l	lumbar_extension	lumbar_bending	lumbar_rotation	neck_flexion	neck_lateral_bending	neck_rotation	arm_flex_r	arm_add_r	arm_rot_r	elbow_flex_r	pro_sup_r	wrist_flex_r	wrist_dev_r	hand_finger_flex_r	arm_flex_l	arm_add_l	arm_rot_l	elbow_flex_l	pro_sup_l	wrist_flex_l	wrist_dev_l	hand_finger_flex_l
      0.97250000	      3.68145275	     -0.38759287	     90.65035302	     -0.00191921	      0.96940050	      0.60591862	     41.16941893	     -6.95568796	    -16.63314201	    -32.44677832	    -22.94553657	      1.15378792	     15.33616289	     43.75774603	    -10.41549577	     -8.55528673	    -37.74275669	    -19.39352368	     -7.85962045	      0.25108504	    -29.34285400	      1.80113405	      4.24193986	    -28.50993953	     -0.37272813	      0.46024993	    -72.52079563	      0.07854743	    -66.65022009	     34.07589991	     98.55545032	    -18.65045801	     -6.11778870	     30.60753333	    -77.82098564	     -6.76048759	    -53.22930337	     21.01427786	    106.22056315	    -37.90628635	     -0.03974520	     79.36858402
      0.97500000	      3.64129570	     -0.03346217	     90.65264029	     -0.00202041	      0.95979303	      0.60195177	     41.35055413	     -7.09999951	    -16.61313715	    -33.63991993	    -23.03409791	      1.34172085	     15.39668906	     43.99125154	    -10.41880617	     -8.47466566	    -39.00049135	    -19.50500475	     -7.53374628	      0.35904672	    -29.94514495	      1.71987257	      4.21002680	    -28.21947072	     -0.22989436	      0.54810145	    -71.73288307	      0.03470700	    -66.60291253	     33.01984567	     98.48694965	    -18.67500940	     -5.97013740	     30.71103483	    -77.09410121	     -6.33186358	    -52.63977215	     20.52567022	    106.23296057	    -37.56057035	      0.04789302	     79.51093429
      0.97750000	      3.58258414	      0.35543476	     90.56156704	     -0.00211688	      0.95022577	      0.59777186	     41.45622529	     -7.21763112	    -16.61453529	    -34.75265945	    -23.21957219	      1.42530733	     15.41489981	     44.21655755	    -10.44524339	     -8.38378965	    -40.36856693	    -19.71743191	     -7.37167973	      0.38912140	    -30.51117680	      1.60698497	      4.17780395	    -28.34993930	     -0.19786119	      0.55559012	    -71.12399310	      0.07598181	    -66.50796561	     32.49712730	     98.46854828	    -18.67597287	     -5.88766329	     30.73912935	    -76.41541073	     -5.76276298	    -52.30353907	     20.28116853	    106.26233607	    -37.37982579	      0.10184980	     79.57977039
      0.98000000	      3.51694205	      0.69917692	     90.61626746	     -0.00240769	      0.94043779	      0.59414671	     41.72425140	     -7.45440718	    -16.63336480	    -36.09429555	    -23.32391073	      1.68003645	     15.51084511	     44.46652382	    -10.36756103	     -8.24800604	    -41.52927250	    -19.77303188	     -6.82980794	      0.53728957	    -31.22677702	      1.52397609	      4.17804185	    -27.42206173	      0.01024969	      0.65393230	    -70.10785138	     -0.14229355	    -66.27415807	     31.10496378	     98.44705199	    -18.72614038	     -5.75302105	     30.85962734	    -75.50244055	     -5.54600788	    -51.51282343	     19.79007276	    106.34393621	    -36.92091911	      0.16966828	     79.75177158
      0.98250000	      3.35143158	      1.65371854	     90.56909582	     -0.00251174	      0.93196192	      0.59012744	     41.21271559	     -7.70243034	    -16.57290877	    -37.23926661	    -23.38263119	      2.33593590	     16.75152455	     43.96082798	    -10.33420057	     -8.29892408	    -42.70344571	    -19.71815558	     -5.87981920	      2.28437146	    -32.58779524	      1.28021315	      4.18306875	    -26.87433293	      0.32144441	      0.73092480	    -69.34911080	     -0.37997519	    -64.54541550	     29.88778317	     96.39921446	    -19.89580835	     -7.00764070	     32.39338924	    -74.77355956	     -5.53808855	    -48.54506300	     19.27941710	    103.13469913	    -36.52834137	     -0.47507740	     79.55637929
      0.98500000	      3.34164603	      2.00555438	     90.52785143	     -0.00266213	      0.92217247	      0.58610381	     41.44015402	     -7.82682023	    -16.60832972	    -38.54582340	    -23.56604200	      2.33474300	     16.76859994	     44.24531447	    -10.37763851	     -8.23401232	    -43.99822371	    -19.83820536	     -5.80372624	      2.30530769	    -33.15578610	      1.24743765	      4.13634850	    -26.91600827	      0.25180145	      0.76166621	    -68.65052813	     -0.39505965	    -64.36047443	     29.57289407	     96.43970287	    -19.89250684	     -6.88830717	     32.38127101	    -73.98812218	     -5.04751578	    -48.23601743	     19.24776912	    103.23799872	    -36.42883405	     -0.46476224	     79.61974604
      0.98750000	      3.26411943	      2.24164719	     90.62051367	     -0.00310539	      0.91190749	      0.58270405	     41.88693398	     -8.10879618	    -16.62933037	    -40.00313424	    -23.51003258	      2.36267720	     16.86503245	     44.68210672	    -10.20076512	     -7.96939341	    -45.23123685	    -19.45866690	     -5.44019360	      2.42968766	    -33.78804897	      1.21096627	      4.11033118	    -25.87080280	      0.29998958	      0.83122359	    -67.72773837	     -0.54861168	    -63.83533298	     28.73822444	     96.59188285	    -19.97014120	     -6.70339084	     32.34488342	    -73.02172452	     -4.85419510	    -47.53482226	     19.10896561	    103.53248837	    -36.20007657	     -0.50639576	     79.77057334
      0.99000000	      3.23578562	      2.61333514	     90.58696436	     -0.00327961	      0.90214272	      0.57877683	     42.11147730	     -8.24887564	    -16.60373886	    -41.33431596	    -23.54187648	      2.39087769	     16.90533587	     44.96993925	    -10.19286050	     -7.81439392	    -46.56921252	    -19.34264504	     -5.31618253	      2.47176011	    -34.40308831	      1.15730359	      4.12114104	    -25.92331318	      0.33198580	      0.83567706	    -66.99864041	     -0.51341780	    -63.55581605	     28.58492696	     96.63527944	    -19.98202300	     -6.70108351	     32.31846551	    -72.14551913	     -4.49572501	    -47.22820753	     19.17985364	    103.61977984	    -36.08738997	     -0.53444695	     79.82398665
      0.99250000	      3.08453249	      2.93073621	     90.77294886	     -0.00379441	      0.89181018	      0.57508409	     42.49862130	     -8.66960197	    -16.56973365	    -43.02955121	    -22.40918679	      2.91445829	     17.27180316	     45.29324610	     -9.93217359	     -7.51947960	    -47.94274807	    -17.53373224	     -3.87857498	      2.73781292	    -35.07263684	      1.07014025	      3.99097017	    -25.04090905	      0.56281221	      0.91917964	    -66.25335224	     -0.69521261	    -62.11168229	     27.94342207	     96.50962762	    -20.39411541	     -7.21711146	     32.01730342	    -71.28098993	     -4.42267646	    -46.05908130	     19.18883039	    103.78674124	    -35.67270361	     -0.90774754	     80.03529661
      0.99500000	      3.05571907	      3.35821737	     90.64502918	     -0.00394184	      0.88188406	      0.57153050	     42.76590792	     -8.78426341	    -16.41245104	    -44.57482177	    -21.62650276	      3.64662213	     17.82007638	     45.49293577	     -9.96402719	     -7.32053463	    -49.38204420	    -15.93774210	     -2.91923973	      2.36637852	    -35.90846979	      0.96445680	      4.14156516	    -24.19759446	      0.63779865	      0.95852972	    -65.61238432	     -0.97697894	    -59.72002028	     27.50847609	     93.69482740	    -21.22211366	     -7.98298044	     31.41432981	    -70.26839923	     -4.28597463	    -44.78984309	     19.15238186	    102.40451417	    -35.69839097	     -1.51918623	     80.09674373
      0.99750000	      3.01213118	      3.63290239	     90.67682109	     -0.00430490	      0.87155964	      0.56799204	     43.21341731	     -8.98205104	    -16.40156959	    -46.24160001	    -20.43515525	      3.36883272	     17.98115756	     45.92042990	     -9.83514013	     -7.15703717	    -50.90079050	    -14.30269379	     -3.18131135	      2.49269431	    -36.53936389	      0.96622206	      4.23679256	    -23.49757933	      0.58705906	      0.94820541	    -64.85870190	     -0.91481809	    -59.17486353	     27.52487336	     93.78350845	    -21.29720643	     -8.04610209	     31.38805823	    -69.25969718	     -4.14355043	    -44.36061216	     19.43863326	    102.52037751	    -35.63726233	     -1.60724648	     80.14710579
      1.00000000	      2.92896919	      3.87854488	     90.61800065	     -0.00429923	      0.86108414	      0.56422964	     43.74465697	     -9.15407793	    -16.11105251	    -48.07240452	    -18.41547189	      4.39153591	     17.93976972	     46.31877236	     -9.79223398	     -6.94140459	    -52.53330764	    -11.49611912	     -1.93964594	      1.36721225	    -37.09526294	      0.81453061	      4.29023702	    -22.99025585	      0.65529592	      0.95293043	    -64.24198028	     -1.09554267	    -57.06873323	     27.48726806	     91.96545802	    -22.10963302	     -8.72596319	     30.94670828	    -68.32380514	     -4.06107093	    -43.16378950	     19.59607932	    101.61059175	    -35.63141557	     -2.09081480	     80.17305539
      1.00250000	      2.82598987	      4.07979118	     90.63386196	     -0.00468786	      0.85057078	      0.56058647	     44.31321179	     -9.41677686	    -15.98967083	    -49.95814400	    -16.02238005	      4.82706655	     17.76429223	     46.81755449	     -9.67519540	     -6.85386026	    -54.29925681	     -8.58714865	     -1.25699347	      0.51848236	    -37.62961227	      0.75503153	      4.33166856	    -22.31639502	      0.61052545	      0.88152071	    -63.58679201	     -1.18369397	    -55.65387827	     27.59996587	     91.23974838	    -22.62119460	     -9.19035927	     30.73484905	    -67.31058858	     -4.01519574	    -42.20009662	     19.85733740	    101.26285005	    -35.60575582	     -2.41710439	     80.22144278
      1.00500000	      2.75132693	      4.27217641	     90.56772029	     -0.00486785	      0.83996558	      0.55697199	     44.95305905	     -9.57566590	    -15.73088264	    -51.97887512	    -13.23739659	      5.37606290	     17.01717876	     47.26783183	     -9.57370569	     -6.68271168	    -56.03298819	     -5.21517739	     -0.75323959	     -1.13250625	    -38.16458990	      0.65716333	      4.50443743	    -21.67204600	      0.58296569	      0.88901880	    -62.93681328	     -1.26970044	    -53.99311812	     27.80790605	     89.97718993	    -23.21864475	     -9.76235509	     30.44947418	    -66.27097902	     -4.03809903	    -41.17382604	     20.16381371	    100.49804520	    -35.63558364	     -2.84869094	     80.23203367
      1.00750000	      2.67930604	      4.40673726	     90.53002569	     -0.00508264	      0.82933445	      0.55341994	     45.65536459	     -9.77682384	    -15.57672615	    -54.06609653	    -10.12734345	      5.82455166	     16.07990984	     47.84197274	     -9.52148552	     -6.65538651	    -57.93861494	     -1.67986329	     -0.29862896	     -2.72316918	    -38.63474877	      0.57351106	      4.58516551	    -20.95455037	      0.54265142	      0.81406773	    -62.23267554	     -1.40966777	    -52.58767956	     28.11721960	     89.11634355	    -23.76325024	    -10.31769719	     30.22836827	    -65.21357119	     -4.03492145	    -40.16278559	     20.45713005	     99.90404865	    -35.66181982	     -3.20445920	     80.27340530
      1.01000000	      2.65852343	      4.61318605	     90.54321900	     -0.00523267	      0.81880204	      0.54969685	     46.25305383	     -9.86367877	    -15.45356856	    -56.15919069	     -6.78417185	      5.40322005	     15.98523824	     48.33258014	     -9.44247959	     -6.62721989	    -59.83417310	      1.56220802	     -0.67000874	     -2.97573682	    -39.14859875	      0.58481162	      4.69571345	    -20.48640015	      0.43263381	      0.77480982	    -61.52673064	     -1.41408644	    -51.80499751	     28.62026787	     89.08288828	    -23.91705400	    -10.68047197	     30.15473115	    -64.13266101	     -4.01969164	    -39.60329037	     20.95198697	     99.84405435	    -35.62182776	     -3.43310093	     80.30656307
